# xmcd
#
# Track frame offsets: 
#        150
#        15980
#        27445
#        39805
#        57222
#        69300
#        90588
#        104978
#        122685
#        134975
#        148928
#        161065
#        172020
#        186768
#        200948
#
# Disc length: 2882 seconds
#
# Revision: 0
# Processed by: cddbd v1.4PL0 Copyright (c) Steve Scherf et al.
# Submitted via: ExactAudioCopy v0.90b4
#
DISCID=e10b400f
DTITLE=Windfall - Indian Warrior
DYEAR=1900
DGENRE=
TTITLE0=Rodeo Junkie
TTITLE1=Seasons
TTITLE2=Liar
TTITLE3=Indian Warriaor
TTITLE4=Nuber one
TTITLE5=Hanging in and holding on
TTITLE6=What did we do
TTITLE7=Home is where the heart is
TTITLE8=Her briken jeart
TTITLE9=Hold me once again
TTITLE10=Friday night
TTITLE11=The first time
TTITLE12=Jezebel
TTITLE13=Guilty in the first degree
TTITLE14=The hangman
EXTD=
EXTT0=
EXTT1=
EXTT2=
EXTT3=
EXTT4=
EXTT5=
EXTT6=
EXTT7=
EXTT8=
EXTT9=
EXTT10=
EXTT11=
EXTT12=
EXTT13=
EXTT14=
PLAYORDER=
